<svg width="40" height="40" viewBox="0 0 40 40" fill="none" xmlns="http://www.w3.org/2000/svg">
<g clipPath="url(#clip0_27_895)">
<path d="M6.6665 13.4167C6.6665 11.6265 7.37766 9.90959 8.64353 8.64372C9.9094 7.37785 11.6263 6.66669 13.4165 6.66669H26.9165C28.7067 6.66669 30.4236 7.37785 31.6895 8.64372C32.9553 9.90959 33.6665 11.6265 33.6665 13.4167V26.9167C33.6665 28.7069 32.9553 30.4238 31.6895 31.6897C30.4236 32.9555 28.7067 33.6667 26.9165 33.6667H13.4165C11.6263 33.6667 9.9094 32.9555 8.64353 31.6897C7.37766 30.4238 6.6665 28.7069 6.6665 26.9167V13.4167Z" stroke="#001966" strokeLinecap="round" strokeLinejoin="round"/>
<path d="M15 20C15 21.3261 15.5268 22.5979 16.4645 23.5355C17.4021 24.4732 18.6739 25 20 25C21.3261 25 22.5979 24.4732 23.5355 23.5355C24.4732 22.5979 25 21.3261 25 20C25 18.6739 24.4732 17.4021 23.5355 16.4645C22.5979 15.5268 21.3261 15 20 15C18.6739 15 17.4021 15.5268 16.4645 16.4645C15.5268 17.4021 15 18.6739 15 20Z" stroke="#001966" strokeLinecap="round" strokeLinejoin="round"/>
<path d="M27.5 12.5V12.5167" stroke="#001966" strokeLinecap="round" strokeLinejoin="round"/>
</g>
<defs>
<clipPath id="clip0_27_895">
<rect width="40" height="40" fill="white"/>
</clipPath>
</defs>
</svg>
