<svg width="0" height="0" class="hidden">
  <symbol fill="none" xmlns="http://www.w3.org/2000/svg" viewBox="0 0 40 40" id="emoji-1">
    <g id="Emoji 4" clip-path="url(#clip0_802_2675)">
      <path id="Vector" d="M20 35C18.0302 35 16.0796 34.612 14.2597 33.8582C12.4399 33.1044 10.7863 31.9995 9.3934 30.6066C8.00052 29.2137 6.89563 27.5601 6.14181 25.7403C5.38799 23.9204 5 21.9698 5 20C5 18.0302 5.38799 16.0796 6.14181 14.2597C6.89563 12.4399 8.00052 10.7863 9.3934 9.3934C10.7863 8.00052 12.4399 6.89563 14.2597 6.14181C16.0796 5.38799 18.0302 5 20 5C23.9782 5 27.7936 6.58035 30.6066 9.3934C33.4196 12.2064 35 16.0218 35 20C35 23.9782 33.4196 27.7936 30.6066 30.6066C27.7936 33.4196 23.9782 35 20 35Z" fill="var(--fill-c)" stroke="var(--effect-4-c)" stroke-width="var(--stroke-width)" stroke-linecap="round" stroke-linejoin="round"></path>
      <path id="Vector_2" d="M25.4004 24.8C24.6835 25.4333 23.8277 25.9363 22.8833 26.2797C21.9389 26.6232 20.9248 26.8 19.9004 26.8C18.876 26.8 17.8619 26.6232 16.9175 26.2797C15.9731 25.9363 15.1173 25.4333 14.4004 24.8" stroke="var(--effect-4-c)" stroke-width="var(--stroke-width)" stroke-linecap="round" stroke-linejoin="round"></path>
      <path id="Vector_3" d="M16.9349 17.031L13.6033 20.0001L10.2717 17.031C10.052 16.8386 9.87886 16.6073 9.76332 16.3518C9.64778 16.0962 9.59231 15.8219 9.60038 15.546C9.60845 15.2702 9.67991 14.9989 9.81024 14.7492C9.94057 14.4994 10.127 14.2767 10.3577 14.0949C10.5884 13.9132 10.8584 13.7764 11.1507 13.6932C11.4431 13.61 11.7514 13.5821 12.0563 13.6114C12.3612 13.6406 12.656 13.7264 12.9223 13.8632C13.1885 14.0001 13.4204 14.185 13.6033 14.4065C13.787 14.1867 14.0192 14.0033 14.2852 13.8679C14.5513 13.7325 14.8456 13.648 15.1496 13.6197C15.4536 13.5913 15.7609 13.6197 16.0522 13.7031C16.3434 13.7866 16.6124 13.9232 16.8423 14.1044C17.0722 14.2857 17.2581 14.5077 17.3882 14.7566C17.5184 15.0055 17.59 15.2758 17.5987 15.5508C17.6074 15.8257 17.5529 16.0993 17.4387 16.3544C17.3245 16.6095 17.153 16.8407 16.9349 17.0334" stroke="var(--effect-4-c)" stroke-width="var(--stroke-width)" stroke-linecap="round" stroke-linejoin="round"></path>
      <path id="Vector_4" d="M29.7357 17.031L26.4041 20.0001L23.0725 17.031C22.8527 16.8386 22.6796 16.6073 22.5641 16.3518C22.4486 16.0962 22.3931 15.8219 22.4012 15.546C22.4092 15.2702 22.4807 14.9989 22.611 14.7492C22.7413 14.4994 22.9277 14.2767 23.1584 14.0949C23.3891 13.9132 23.6592 13.7764 23.9515 13.6932C24.2438 13.61 24.5522 13.5821 24.8571 13.6114C25.1619 13.6406 25.4568 13.7264 25.7231 13.8632C25.9893 14.0001 26.2212 14.185 26.4041 14.4065C26.5878 14.1867 26.8199 14.0033 27.086 13.8679C27.3521 13.7325 27.6463 13.648 27.9504 13.6197C28.2544 13.5913 28.5617 13.6197 28.8529 13.7031C29.1442 13.7866 29.4132 13.9232 29.6431 14.1044C29.873 14.2857 30.0588 14.5077 30.189 14.7566C30.3191 15.0055 30.3908 15.2758 30.3995 15.5508C30.4082 15.8257 30.3537 16.0993 30.2395 16.3544C30.1253 16.6095 29.9538 16.8407 29.7357 17.0334" stroke="var(--effect-4-c)" stroke-width="var(--stroke-width)" stroke-linecap="round" stroke-linejoin="round"></path>
    </g>
    <defs>
      <clipPath id="clip0_802_2675">
        <rect width="40" height="40" fill="white"></rect>
      </clipPath>
    </defs>
  </symbol>
  <symbol fill="none" xmlns="http://www.w3.org/2000/svg" viewBox="0 0 40 40" id="emoji-2">
    <g id="Emoji 2" clip-path="url(#clip0_802_2687)">
      <path id="Vector" d="M5 20C5 21.9698 5.38799 23.9204 6.14181 25.7403C6.89563 27.5601 8.00052 29.2137 9.3934 30.6066C10.7863 31.9995 12.4399 33.1044 14.2597 33.8582C16.0796 34.612 18.0302 35 20 35C21.9698 35 23.9204 34.612 25.7403 33.8582C27.5601 33.1044 29.2137 31.9995 30.6066 30.6066C31.9995 29.2137 33.1044 27.5601 33.8582 25.7403C34.612 23.9204 35 21.9698 35 20C35 18.0302 34.612 16.0796 33.8582 14.2597C33.1044 12.4399 31.9995 10.7863 30.6066 9.3934C29.2137 8.00052 27.5601 6.89563 25.7403 6.14181C23.9204 5.38799 21.9698 5 20 5C18.0302 5 16.0796 5.38799 14.2597 6.14181C12.4399 6.89563 10.7863 8.00052 9.3934 9.3934C8.00052 10.7863 6.89563 12.4399 6.14181 14.2597C5.38799 16.0796 5 18.0302 5 20Z" fill="var(--fill-c)" stroke="var(--effect-4-c)" stroke-width="var(--stroke-width)" stroke-linecap="round" stroke-linejoin="round"></path>
      <path id="Vector_2" d="M15 16.6667H15.0167" stroke="var(--effect-4-c)" stroke-width="var(--stroke-width)" stroke-linecap="round" stroke-linejoin="round"></path>
      <path id="Vector_3" d="M25 16.6667H25.0167" stroke="var(--effect-4-c)" stroke-width="var(--stroke-width)" stroke-linecap="round" stroke-linejoin="round"></path>
      <path id="Vector_4" d="M15 25H25" stroke="var(--effect-4-c)" stroke-width="var(--stroke-width)" stroke-linecap="round" stroke-linejoin="round"></path>
    </g>
    <defs>
      <clipPath id="clip0_802_2687">
        <rect width="40" height="40" fill="white"></rect>
      </clipPath>
    </defs>
  </symbol>
  <symbol fill="none" xmlns="http://www.w3.org/2000/svg" viewBox="0 0 40 40" id="emoji-3">
    <g id="Emoji 3" clip-path="url(#clip0_802_2681)">
      <path id="Vector" d="M20 35C18.0302 35 16.0796 34.612 14.2597 33.8582C12.4399 33.1044 10.7863 31.9995 9.3934 30.6066C8.00052 29.2137 6.89563 27.5601 6.14181 25.7403C5.38799 23.9204 5 21.9698 5 20C5 18.0302 5.38799 16.0796 6.14181 14.2597C6.89563 12.4399 8.00052 10.7863 9.3934 9.3934C10.7863 8.00052 12.4399 6.89563 14.2597 6.14181C16.0796 5.38799 18.0302 5 20 5C23.9782 5 27.7936 6.58035 30.6066 9.3934C33.4196 12.2064 35 16.0218 35 20C35 23.9782 33.4196 27.7936 30.6066 30.6066C27.7936 33.4196 23.9782 35 20 35Z" fill="var(--fill-c)" stroke="var(--effect-4-c)" stroke-width="var(--stroke-width)" stroke-linecap="round" stroke-linejoin="round"></path>
      <path id="Vector_2" d="M16.667 16.6667C15.8337 15.0001 12.5003 15.0001 11.667 16.6667" stroke="var(--effect-4-c)" stroke-width="var(--stroke-width)" stroke-linecap="round" stroke-linejoin="round"></path>
      <path id="Vector_3" d="M28.333 16.6667C27.4997 15.0001 24.1663 15.0001 23.333 16.6667" stroke="var(--effect-4-c)" stroke-width="var(--stroke-width)" stroke-linecap="round" stroke-linejoin="round"></path>
      <path id="Vector_4" d="M24.1663 25C23.6232 25.5543 22.9749 25.9947 22.2595 26.2954C21.544 26.596 20.7757 26.7509 19.9997 26.7509C19.2236 26.7509 18.4554 26.596 17.7399 26.2954C17.0244 25.9947 16.3761 25.5543 15.833 25" stroke="var(--effect-4-c)" stroke-width="var(--stroke-width)" stroke-linecap="round" stroke-linejoin="round"></path>
    </g>
    <defs>
      <clipPath id="clip0_802_2681">
        <rect width="40" height="40" fill="white"></rect>
      </clipPath>
    </defs>
  </symbol>
  <symbol fill="none" xmlns="http://www.w3.org/2000/svg" viewBox="0 0 40 40" id="emoji-4">
    <g id="Emoji 5" clip-path="url(#clip0_802_2693)">
      <path id="Vector" d="M5 20C5 21.9698 5.38799 23.9204 6.14181 25.7403C6.89563 27.5601 8.00052 29.2137 9.3934 30.6066C10.7863 31.9995 12.4399 33.1044 14.2597 33.8582C16.0796 34.612 18.0302 35 20 35C21.9698 35 23.9204 34.612 25.7403 33.8582C27.5601 33.1044 29.2137 31.9995 30.6066 30.6066C31.9995 29.2137 33.1044 27.5601 33.8582 25.7403C34.612 23.9204 35 21.9698 35 20C35 18.0302 34.612 16.0796 33.8582 14.2597C33.1044 12.4399 31.9995 10.7863 30.6066 9.3934C29.2137 8.00052 27.5601 6.89563 25.7403 6.14181C23.9204 5.38799 21.9698 5 20 5C18.0302 5 16.0796 5.38799 14.2597 6.14181C12.4399 6.89563 10.7863 8.00052 9.3934 9.3934C8.00052 10.7863 6.89563 12.4399 6.14181 14.2597C5.38799 16.0796 5 18.0302 5 20Z" fill="var(--fill-c)" stroke="var(--effect-4-c)" stroke-width="var(--stroke-width)" stroke-linecap="round" stroke-linejoin="round"></path>
      <path id="Vector_2" d="M15 16.6667H15.0167" stroke="var(--effect-4-c)" stroke-width="var(--stroke-width)" stroke-linecap="round" stroke-linejoin="round"></path>
      <path id="Vector_3" d="M25 16.6667H25.0167" stroke="var(--effect-4-c)" stroke-width="var(--stroke-width)" stroke-linecap="round" stroke-linejoin="round"></path>
      <path id="Vector_4" d="M15.6806 26.6554C16.1615 26.0933 16.787 25.5424 17.5205 25.0348C18.2539 24.5273 19.0805 24.0733 19.9519 23.6995C20.8233 23.3257 21.722 23.0397 22.5952 22.8581C23.4685 22.6765 24.2988 22.603 25.0376 22.6419" stroke="var(--effect-4-c)" stroke-width="var(--stroke-width)" stroke-linecap="round" stroke-linejoin="round"></path>
    </g>
    <defs>
      <clipPath id="clip0_802_2693">
        <rect width="40" height="40" fill="white"></rect>
      </clipPath>
    </defs>
  </symbol>
  <symbol fill="none" xmlns="http://www.w3.org/2000/svg" viewBox="0 0 40 40" id="emoji-5">
    <g id="Emoji" clip-path="url(#clip0_802_2699)">
      <path id="Vector" d="M5 20C5 21.9698 5.38799 23.9204 6.14181 25.7403C6.89563 27.5601 8.00052 29.2137 9.3934 30.6066C10.7863 31.9995 12.4399 33.1044 14.2597 33.8582C16.0796 34.612 18.0302 35 20 35C21.9698 35 23.9204 34.612 25.7403 33.8582C27.5601 33.1044 29.2137 31.9995 30.6066 30.6066C31.9995 29.2137 33.1044 27.5601 33.8582 25.7403C34.612 23.9204 35 21.9698 35 20C35 18.0302 34.612 16.0796 33.8582 14.2597C33.1044 12.4399 31.9995 10.7863 30.6066 9.3934C29.2137 8.00052 27.5601 6.89563 25.7403 6.14181C23.9204 5.38799 21.9698 5 20 5C18.0302 5 16.0796 5.38799 14.2597 6.14181C12.4399 6.89563 10.7863 8.00052 9.3934 9.3934C8.00052 10.7863 6.89563 12.4399 6.14181 14.2597C5.38799 16.0796 5 18.0302 5 20Z" fill="var(--fill-c)" stroke="var(--effect-4-c)" stroke-width="var(--stroke-width)" stroke-linecap="round" stroke-linejoin="round"></path>
      <path id="Vector_2" d="M15 16.6667H15.0167" stroke="var(--effect-4-c)" stroke-width="var(--stroke-width)" stroke-linecap="round" stroke-linejoin="round"></path>
      <path id="Vector_3" d="M25 16.6667H25.0167" stroke="var(--effect-4-c)" stroke-width="var(--stroke-width)" stroke-linecap="round" stroke-linejoin="round"></path>
      <path id="Vector_4" d="M15.834 25.4166C16.3771 24.8623 17.0254 24.4219 17.7409 24.1213C18.4563 23.8206 19.2246 23.6658 20.0007 23.6658C20.7767 23.6658 21.545 23.8206 22.2604 24.1213C22.9759 24.4219 23.6242 24.8623 24.1673 25.4166" stroke="var(--effect-4-c)" stroke-width="var(--stroke-width)" stroke-linecap="round" stroke-linejoin="round"></path>
    </g>
    <defs>
      <clipPath id="clip0_802_2699">
        <rect width="40" height="40" fill="white"></rect>
      </clipPath>
    </defs>
  </symbol>
</svg>