<svg width="0" height="0" style="dislpay: none">
  <symbol fill="none" xmlns="http://www.w3.org/2000/svg" viewBox="0 0 40 40" id="emoji-1">
    <g id="Emoji 4" clip-path="url(#clip0_802_2675)">
      <path id="Vector" d="M20 35C18.0302 35 16.0796 34.612 14.2597 33.8582C12.4399 33.1044 10.7863 31.9995 9.3934 30.6066C8.00052 29.2137 6.89563 27.5601 6.14181 25.7403C5.38799 23.9204 5 21.9698 5 20C5 18.0302 5.38799 16.0796 6.14181 14.2597C6.89563 12.4399 8.00052 10.7863 9.3934 9.3934C10.7863 8.00052 12.4399 6.89563 14.2597 6.14181C16.0796 5.38799 18.0302 5 20 5C23.9782 5 27.7936 6.58035 30.6066 9.3934C33.4196 12.2064 35 16.0218 35 20C35 23.9782 33.4196 27.7936 30.6066 30.6066C27.7936 33.4196 23.9782 35 20 35Z" fill="var(--fill-c)" stroke="var(--color-7)" stroke-width="var(--stroke-width)" stroke-linecap="round" stroke-linejoin="round"></path>
      <path id="Vector_2" d="M25.4004 24.8C24.6835 25.4333 23.8277 25.9363 22.8833 26.2797C21.9389 26.6232 20.9248 26.8 19.9004 26.8C18.876 26.8 17.8619 26.6232 16.9175 26.2797C15.9731 25.9363 15.1173 25.4333 14.4004 24.8" stroke="var(--color-7)" stroke-width="var(--stroke-width)" stroke-linecap="round" stroke-linejoin="round"></path>
      <path id="Vector_3" d="M16.9349 17.031L13.6033 20.0001L10.2717 17.031C10.052 16.8386 9.87886 16.6073 9.76332 16.3518C9.64778 16.0962 9.59231 15.8219 9.60038 15.546C9.60845 15.2702 9.67991 14.9989 9.81024 14.7492C9.94057 14.4994 10.127 14.2767 10.3577 14.0949C10.5884 13.9132 10.8584 13.7764 11.1507 13.6932C11.4431 13.61 11.7514 13.5821 12.0563 13.6114C12.3612 13.6406 12.656 13.7264 12.9223 13.8632C13.1885 14.0001 13.4204 14.185 13.6033 14.4065C13.787 14.1867 14.0192 14.0033 14.2852 13.8679C14.5513 13.7325 14.8456 13.648 15.1496 13.6197C15.4536 13.5913 15.7609 13.6197 16.0522 13.7031C16.3434 13.7866 16.6124 13.9232 16.8423 14.1044C17.0722 14.2857 17.2581 14.5077 17.3882 14.7566C17.5184 15.0055 17.59 15.2758 17.5987 15.5508C17.6074 15.8257 17.5529 16.0993 17.4387 16.3544C17.3245 16.6095 17.153 16.8407 16.9349 17.0334" stroke="var(--color-7)" stroke-width="var(--stroke-width)" stroke-linecap="round" stroke-linejoin="round"></path>
      <path id="Vector_4" d="M29.7357 17.031L26.4041 20.0001L23.0725 17.031C22.8527 16.8386 22.6796 16.6073 22.5641 16.3518C22.4486 16.0962 22.3931 15.8219 22.4012 15.546C22.4092 15.2702 22.4807 14.9989 22.611 14.7492C22.7413 14.4994 22.9277 14.2767 23.1584 14.0949C23.3891 13.9132 23.6592 13.7764 23.9515 13.6932C24.2438 13.61 24.5522 13.5821 24.8571 13.6114C25.1619 13.6406 25.4568 13.7264 25.7231 13.8632C25.9893 14.0001 26.2212 14.185 26.4041 14.4065C26.5878 14.1867 26.8199 14.0033 27.086 13.8679C27.3521 13.7325 27.6463 13.648 27.9504 13.6197C28.2544 13.5913 28.5617 13.6197 28.8529 13.7031C29.1442 13.7866 29.4132 13.9232 29.6431 14.1044C29.873 14.2857 30.0588 14.5077 30.189 14.7566C30.3191 15.0055 30.3908 15.2758 30.3995 15.5508C30.4082 15.8257 30.3537 16.0993 30.2395 16.3544C30.1253 16.6095 29.9538 16.8407 29.7357 17.0334" stroke="var(--color-7)" stroke-width="var(--stroke-width)" stroke-linecap="round" stroke-linejoin="round"></path>
    </g>
    <defs>
      <clipPath id="clip0_802_2675">
        <rect width="40" height="40" fill="white"></rect>
      </clipPath>
    </defs>
  </symbol>
  <symbol fill="none" xmlns="http://www.w3.org/2000/svg" viewBox="0 0 40 40" id="emoji-2">
    <g id="Emoji 2" clip-path="url(#clip0_802_2687)">
      <path id="Vector" d="M5 20C5 21.9698 5.38799 23.9204 6.14181 25.7403C6.89563 27.5601 8.00052 29.2137 9.3934 30.6066C10.7863 31.9995 12.4399 33.1044 14.2597 33.8582C16.0796 34.612 18.0302 35 20 35C21.9698 35 23.9204 34.612 25.7403 33.8582C27.5601 33.1044 29.2137 31.9995 30.6066 30.6066C31.9995 29.2137 33.1044 27.5601 33.8582 25.7403C34.612 23.9204 35 21.9698 35 20C35 18.0302 34.612 16.0796 33.8582 14.2597C33.1044 12.4399 31.9995 10.7863 30.6066 9.3934C29.2137 8.00052 27.5601 6.89563 25.7403 6.14181C23.9204 5.38799 21.9698 5 20 5C18.0302 5 16.0796 5.38799 14.2597 6.14181C12.4399 6.89563 10.7863 8.00052 9.3934 9.3934C8.00052 10.7863 6.89563 12.4399 6.14181 14.2597C5.38799 16.0796 5 18.0302 5 20Z" fill="var(--fill-c)" stroke="var(--color-7)" stroke-width="var(--stroke-width)" stroke-linecap="round" stroke-linejoin="round"></path>
      <path id="Vector_2" d="M15 16.6667H15.0167" stroke="var(--color-7)" stroke-width="var(--stroke-width)" stroke-linecap="round" stroke-linejoin="round"></path>
      <path id="Vector_3" d="M25 16.6667H25.0167" stroke="var(--color-7)" stroke-width="var(--stroke-width)" stroke-linecap="round" stroke-linejoin="round"></path>
      <path id="Vector_4" d="M15 25H25" stroke="var(--color-7)" stroke-width="var(--stroke-width)" stroke-linecap="round" stroke-linejoin="round"></path>
    </g>
    <defs>
      <clipPath id="clip0_802_2687">
        <rect width="40" height="40" fill="white"></rect>
      </clipPath>
    </defs>
  </symbol>
  <symbol fill="none" xmlns="http://www.w3.org/2000/svg" viewBox="0 0 40 40" id="emoji-3">
    <g id="Emoji 3" clip-path="url(#clip0_802_2681)">
      <path id="Vector" d="M20 35C18.0302 35 16.0796 34.612 14.2597 33.8582C12.4399 33.1044 10.7863 31.9995 9.3934 30.6066C8.00052 29.2137 6.89563 27.5601 6.14181 25.7403C5.38799 23.9204 5 21.9698 5 20C5 18.0302 5.38799 16.0796 6.14181 14.2597C6.89563 12.4399 8.00052 10.7863 9.3934 9.3934C10.7863 8.00052 12.4399 6.89563 14.2597 6.14181C16.0796 5.38799 18.0302 5 20 5C23.9782 5 27.7936 6.58035 30.6066 9.3934C33.4196 12.2064 35 16.0218 35 20C35 23.9782 33.4196 27.7936 30.6066 30.6066C27.7936 33.4196 23.9782 35 20 35Z" fill="var(--fill-c)" stroke="var(--color-7)" stroke-width="var(--stroke-width)" stroke-linecap="round" stroke-linejoin="round"></path>
      <path id="Vector_2" d="M16.667 16.6667C15.8337 15.0001 12.5003 15.0001 11.667 16.6667" stroke="var(--color-7)" stroke-width="var(--stroke-width)" stroke-linecap="round" stroke-linejoin="round"></path>
      <path id="Vector_3" d="M28.333 16.6667C27.4997 15.0001 24.1663 15.0001 23.333 16.6667" stroke="var(--color-7)" stroke-width="var(--stroke-width)" stroke-linecap="round" stroke-linejoin="round"></path>
      <path id="Vector_4" d="M24.1663 25C23.6232 25.5543 22.9749 25.9947 22.2595 26.2954C21.544 26.596 20.7757 26.7509 19.9997 26.7509C19.2236 26.7509 18.4554 26.596 17.7399 26.2954C17.0244 25.9947 16.3761 25.5543 15.833 25" stroke="var(--color-7)" stroke-width="var(--stroke-width)" stroke-linecap="round" stroke-linejoin="round"></path>
    </g>
    <defs>
      <clipPath id="clip0_802_2681">
        <rect width="40" height="40" fill="white"></rect>
      </clipPath>
    </defs>
  </symbol>
  <symbol fill="none" xmlns="http://www.w3.org/2000/svg" viewBox="0 0 40 40" id="emoji-4">
    <g id="Emoji 5" clip-path="url(#clip0_802_2693)">
      <path id="Vector" d="M5 20C5 21.9698 5.38799 23.9204 6.14181 25.7403C6.89563 27.5601 8.00052 29.2137 9.3934 30.6066C10.7863 31.9995 12.4399 33.1044 14.2597 33.8582C16.0796 34.612 18.0302 35 20 35C21.9698 35 23.9204 34.612 25.7403 33.8582C27.5601 33.1044 29.2137 31.9995 30.6066 30.6066C31.9995 29.2137 33.1044 27.5601 33.8582 25.7403C34.612 23.9204 35 21.9698 35 20C35 18.0302 34.612 16.0796 33.8582 14.2597C33.1044 12.4399 31.9995 10.7863 30.6066 9.3934C29.2137 8.00052 27.5601 6.89563 25.7403 6.14181C23.9204 5.38799 21.9698 5 20 5C18.0302 5 16.0796 5.38799 14.2597 6.14181C12.4399 6.89563 10.7863 8.00052 9.3934 9.3934C8.00052 10.7863 6.89563 12.4399 6.14181 14.2597C5.38799 16.0796 5 18.0302 5 20Z" fill="var(--fill-c)" stroke="var(--color-7)" stroke-width="var(--stroke-width)" stroke-linecap="round" stroke-linejoin="round"></path>
      <path id="Vector_2" d="M15 16.6667H15.0167" stroke="var(--color-7)" stroke-width="var(--stroke-width)" stroke-linecap="round" stroke-linejoin="round"></path>
      <path id="Vector_3" d="M25 16.6667H25.0167" stroke="var(--color-7)" stroke-width="var(--stroke-width)" stroke-linecap="round" stroke-linejoin="round"></path>
      <path id="Vector_4" d="M15.6806 26.6554C16.1615 26.0933 16.787 25.5424 17.5205 25.0348C18.2539 24.5273 19.0805 24.0733 19.9519 23.6995C20.8233 23.3257 21.722 23.0397 22.5952 22.8581C23.4685 22.6765 24.2988 22.603 25.0376 22.6419" stroke="var(--color-7)" stroke-width="var(--stroke-width)" stroke-linecap="round" stroke-linejoin="round"></path>
    </g>
    <defs>
      <clipPath id="clip0_802_2693">
        <rect width="40" height="40" fill="white"></rect>
      </clipPath>
    </defs>
  </symbol>
  <symbol fill="none" xmlns="http://www.w3.org/2000/svg" viewBox="0 0 40 40" id="emoji-5">
    <g id="Emoji" clip-path="url(#clip0_802_2699)">
      <path id="Vector" d="M5 20C5 21.9698 5.38799 23.9204 6.14181 25.7403C6.89563 27.5601 8.00052 29.2137 9.3934 30.6066C10.7863 31.9995 12.4399 33.1044 14.2597 33.8582C16.0796 34.612 18.0302 35 20 35C21.9698 35 23.9204 34.612 25.7403 33.8582C27.5601 33.1044 29.2137 31.9995 30.6066 30.6066C31.9995 29.2137 33.1044 27.5601 33.8582 25.7403C34.612 23.9204 35 21.9698 35 20C35 18.0302 34.612 16.0796 33.8582 14.2597C33.1044 12.4399 31.9995 10.7863 30.6066 9.3934C29.2137 8.00052 27.5601 6.89563 25.7403 6.14181C23.9204 5.38799 21.9698 5 20 5C18.0302 5 16.0796 5.38799 14.2597 6.14181C12.4399 6.89563 10.7863 8.00052 9.3934 9.3934C8.00052 10.7863 6.89563 12.4399 6.14181 14.2597C5.38799 16.0796 5 18.0302 5 20Z" fill="var(--fill-c)" stroke="var(--color-7)" stroke-width="var(--stroke-width)" stroke-linecap="round" stroke-linejoin="round"></path>
      <path id="Vector_2" d="M15 16.6667H15.0167" stroke="var(--color-7)" stroke-width="var(--stroke-width)" stroke-linecap="round" stroke-linejoin="round"></path>
      <path id="Vector_3" d="M25 16.6667H25.0167" stroke="var(--color-7)" stroke-width="var(--stroke-width)" stroke-linecap="round" stroke-linejoin="round"></path>
      <path id="Vector_4" d="M15.834 25.4166C16.3771 24.8623 17.0254 24.4219 17.7409 24.1213C18.4563 23.8206 19.2246 23.6658 20.0007 23.6658C20.7767 23.6658 21.545 23.8206 22.2604 24.1213C22.9759 24.4219 23.6242 24.8623 24.1673 25.4166" stroke="var(--color-7)" stroke-width="var(--stroke-width)" stroke-linecap="round" stroke-linejoin="round"></path>
    </g>
    <defs>
      <clipPath id="clip0_802_2699">
        <rect width="40" height="40" fill="white"></rect>
      </clipPath>
    </defs>
  </symbol>
  <symbol fill="none" xmlns="http://www.w3.org/2000/svg" viewBox="0 0 40 40" id="what-is-item-icon">
    <g clip-path="url(#clip0_39_275)">
      <path d="M11.667 20L20.0003 28.3334L36.667 11.6667" stroke="var(--color-1)" stroke-linecap="round" stroke-linejoin="round"></path>
      <path d="M3 20.3333L11.3333 28.6667M19.6667 20.3333L28 12" stroke="var(--color-1)" stroke-linecap="round" stroke-linejoin="round"></path>
    </g>
    <defs>
      <clipPath id="clip0_39_275">
        <rect width="40" height="40" fill="white"></rect>
      </clipPath>
    </defs>
  </symbol>
  <symbol fill="none" xmlns="http://www.w3.org/2000/svg" viewBox="0 0 40 40" id="communication-item-icon">
    <g clip-path="url(#clip0_39_312)">
      <path d="M27.4997 16.6667C32.563 16.6667 36.6663 20.025 36.6663 24.1667C36.6663 26.495 35.3697 28.575 33.333 29.95V33.3333L30.0597 31.37C29.2208 31.5681 28.3616 31.6677 27.4997 31.6667C22.4363 31.6667 18.333 28.3083 18.333 24.1667C18.333 20.025 22.4363 16.6667 27.4997 16.6667Z" stroke="var(--color-1)" stroke-linecap="round" stroke-linejoin="round"></path>
      <path d="M18.6613 26.1633C17.5113 26.49 16.278 26.6667 14.9997 26.6667C13.5187 26.6699 12.0475 26.4265 10.6463 25.9467L6.66634 28.3333V23.665C4.60467 21.8617 3.33301 19.3917 3.33301 16.6667C3.33301 11.1433 8.55634 6.66667 14.9997 6.66667C21.303 6.66667 26.438 10.95 26.6663 16.3083V16.6967" stroke="var(--color-1)" stroke-linecap="round" stroke-linejoin="round"></path>
    </g>
    <defs>
      <clipPath id="clip0_39_312">
        <rect width="40" height="40" fill="white"></rect>
      </clipPath>
    </defs>
  </symbol>
  <symbol fill="none" xmlns="http://www.w3.org/2000/svg" viewBox="0 0 42 42" id="add-user">
    <g clip-path="url(#clip0_27_1224)">
      <path d="M9.33398 12.6667C9.33398 14.4348 10.0364 16.1305 11.2866 17.3807C12.5368 18.631 14.2325 19.3333 16.0007 19.3333C17.7688 19.3333 19.4645 18.631 20.7147 17.3807C21.9649 16.1305 22.6673 14.4348 22.6673 12.6667C22.6673 10.8986 21.9649 9.20286 20.7147 7.95262C19.4645 6.70238 17.7688 6 16.0007 6C14.2325 6 12.5368 6.70238 11.2866 7.95262C10.0364 9.20286 9.33398 10.8986 9.33398 12.6667Z" stroke="#001966" stroke-linecap="round" stroke-linejoin="round"></path>
      <path d="M6 36V32.6667C6 30.8986 6.70238 29.2029 7.95262 27.9526C9.20286 26.7024 10.8986 26 12.6667 26H19.3333C20.9333 26 22.4 26.5633 23.55 27.5017" stroke="#001966" stroke-linecap="round" stroke-linejoin="round"></path>
      <path d="M27.666 6.21667C29.1 6.58384 30.3711 7.41784 31.2787 8.58719C32.1864 9.75654 32.6791 11.1947 32.6791 12.675C32.6791 14.1553 32.1864 15.5935 31.2787 16.7628C30.3711 17.9322 29.1 18.7662 27.666 19.1333" stroke="#001966" stroke-linecap="round" stroke-linejoin="round"></path>
      <path d="M27.666 32.6666H37.666" stroke="#001966" stroke-linecap="round" stroke-linejoin="round"></path>
      <path d="M32.666 27.6666V37.6666" stroke="#001966" stroke-linecap="round" stroke-linejoin="round"></path>
    </g>
    <rect x="1" y="1" width="40" height="40" rx="5" stroke="#A3AFD1"></rect>
    <defs>
      <clipPath id="clip0_27_1224">
        <rect x="1" y="1" width="40" height="40" rx="5" fill="white"></rect>
      </clipPath>
    </defs>
  </symbol>
  <symbol fill="none" xmlns="http://www.w3.org/2000/svg" viewBox="0 0 40 40" id="arrow-right">
    <g id="arrow-right-g" clip-path="url(#clip0_766_3646)">
      <path id="Vector" d="M8.33398 20H31.6673" stroke="#001966" stroke-linecap="round" stroke-linejoin="round"></path>
      <path id="Vector_2" d="M21.666 30L31.666 20" stroke="#001966" stroke-linecap="round" stroke-linejoin="round"></path>
      <path id="Vector_3" d="M21.666 10L31.666 20" stroke="#001966" stroke-linecap="round" stroke-linejoin="round"></path>
    </g>
    <defs>
      <clipPath id="clip0_766_3646">
        <rect width="40" height="40" fill="white"></rect>
      </clipPath>
    </defs>
  </symbol>
  <symbol fill="none" xmlns="http://www.w3.org/2000/svg" viewBox="0 0 40 40" id="chats">
    <g id="Chat" clip-path="url(#clip0_12_20)">
      <path id="Vector" d="M27.5007 16.6666C32.564 16.6666 36.6673 20.025 36.6673 24.1666C36.6673 26.495 35.3707 28.575 33.334 29.95V33.3333L30.0607 31.37C29.2218 31.5681 28.3626 31.6676 27.5007 31.6666C22.4373 31.6666 18.334 28.3083 18.334 24.1666C18.334 20.025 22.4373 16.6666 27.5007 16.6666Z" stroke="#001966" stroke-linecap="round" stroke-linejoin="round"></path>
      <path id="Vector_2" d="M18.6623 26.1633C17.5123 26.49 16.279 26.6666 15.0007 26.6666C13.5196 26.6698 12.0484 26.4265 10.6473 25.9466L6.66732 28.3333V23.665C4.60565 21.8616 3.33398 19.3916 3.33398 16.6666C3.33398 11.1433 8.55732 6.66663 15.0007 6.66663C21.304 6.66663 26.439 10.95 26.6673 16.3083V16.6966" stroke="#001966" stroke-linecap="round" stroke-linejoin="round"></path>
    </g>
    <defs>
      <clipPath id="clip0_12_20">
        <rect width="40" height="40" fill="white"></rect>
      </clipPath>
    </defs>
  </symbol>
  <symbol fill="var(--exit-fill-c)" xmlns="http://www.w3.org/2000/svg" viewBox="0 0 40 40" id="exit">
    <g id="Exit">
      <g clip-path="url(#clip0_27_1249)">
        <path id="Vector" d="M23.3333 13.3333V9.99996C23.3333 9.1159 22.9821 8.26806 22.357 7.64294C21.7319 7.01782 20.8841 6.66663 20 6.66663H8.33333C7.44928 6.66663 6.60143 7.01782 5.97631 7.64294C5.35119 8.26806 5 9.1159 5 9.99996V30C5 30.884 5.35119 31.7319 5.97631 32.357C6.60143 32.9821 7.44928 33.3333 8.33333 33.3333H20C20.8841 33.3333 21.7319 32.9821 22.357 32.357C22.9821 31.7319 23.3333 30.884 23.3333 30V26.6666" stroke="var(--stroke-c)" stroke-linecap="round" stroke-linejoin="round"></path>
        <path id="Vector_2" d="M15 20H35L30 15" stroke="var(--stroke-c)" stroke-linecap="round" stroke-linejoin="round"></path>
        <path id="Vector_3" d="M30 25L35 20" stroke="var(--stroke-c)" stroke-linecap="round" stroke-linejoin="round"></path>
      </g>
      <!-- <rect x="0.5" y="0.5" width="39" height="39" rx="4.5" stroke="#A3AFD1"></rect> -->
    </g>
    <defs>
      <clipPath id="clip0_27_1249">
        <rect width="40" height="40" rx="5" fill="white"></rect>
      </clipPath>
    </defs>
  </symbol>
   <symbol fill="none" xmlns="http://www.w3.org/2000/svg" viewBox="0 0 30 30" id="mail">
    <g id="mail" clip-path="url(#clip0_1192_3610)">
      <path id="Vector" d="M10 11.25H20" stroke="#001966" stroke-linecap="round" stroke-linejoin="round"></path>
      <path id="Vector_2" d="M10 16.25H17.5" stroke="#001966" stroke-linecap="round" stroke-linejoin="round"></path>
      <path id="Vector_3" d="M22.5 5C23.4946 5 24.4484 5.39509 25.1517 6.09835C25.8549 6.80161 26.25 7.75544 26.25 8.75V18.75C26.25 19.7446 25.8549 20.6984 25.1517 21.4017C24.4484 22.1049 23.4946 22.5 22.5 22.5H16.25L10 26.25V22.5H7.5C6.50544 22.5 5.55161 22.1049 4.84835 21.4017C4.14509 20.6984 3.75 19.7446 3.75 18.75V8.75C3.75 7.75544 4.14509 6.80161 4.84835 6.09835C5.55161 5.39509 6.50544 5 7.5 5H22.5Z" stroke="#001966" stroke-linecap="round" stroke-linejoin="round"></path>
    </g>
    <defs>
      <clipPath id="clip0_1192_3610">
        <rect width="30" height="30" fill="white"></rect>
      </clipPath>
    </defs>
  </symbol>
  <symbol fill="none" xmlns="http://www.w3.org/2000/svg" viewBox="0 0 40 40" id="tick">
    <g id="tick-g" clip-path="url(#clip0_395_2454)">
      <path id="Vector" d="M13.334 20L20.0007 26.6667" stroke="#001966" stroke-linecap="round" stroke-linejoin="round"></path>
      <path id="Vector_2" d="M26.6667 20L20 26.6667" stroke="#001966" stroke-linecap="round" stroke-linejoin="round"></path>
    </g>
    <defs>
      <clipPath id="clip0_395_2454">
        <rect width="40" height="40" fill="white"></rect>
      </clipPath>
    </defs>
  </symbol>
  <symbol fill="none" xmlns="http://www.w3.org/2000/svg" viewBox="0 0 25 26" id="rocket">
    <g id="rocket" clip-path="url(#clip0_521_4476)">
      <path id="Vector" d="M4.16602 14.0416C6.0234 14.2624 7.75252 15.1016 9.07514 16.4242C10.3978 17.7468 11.2369 19.4759 11.4577 21.3333C12.3784 20.8025 13.1486 20.0456 13.6954 19.1343C14.2422 18.2229 14.5476 17.1872 14.5827 16.125C16.3318 15.5097 17.8591 14.3895 18.9716 12.9062C20.0841 11.4229 20.7317 9.64302 20.8327 7.79163C20.8327 6.96282 20.5034 6.16797 19.9174 5.58192C19.3313 4.99587 18.5365 4.66663 17.7077 4.66663C15.8563 4.76757 14.0764 5.41524 12.5931 6.52772C11.1098 7.64021 9.98965 9.16755 9.37435 10.9166C8.31212 10.9517 7.27639 11.2571 6.36504 11.8039C5.45369 12.3507 4.69684 13.1209 4.16602 14.0416Z" stroke="#FFFEFE" stroke-width="1.75" stroke-linecap="round" stroke-linejoin="round"></path>
      <path id="Vector_2" d="M7.29262 15.0834C6.20848 15.6954 5.33184 16.6173 4.77507 17.7309C4.2183 18.8444 4.00678 20.0988 4.16762 21.3334C5.40216 21.4942 6.6566 21.2827 7.77014 20.7259C8.88368 20.1692 9.80556 19.2925 10.4176 18.2084" stroke="#FFFEFE" stroke-width="1.75" stroke-linecap="round" stroke-linejoin="round"></path>
      <path id="Vector_3" d="M14.584 9.87504C14.584 10.1513 14.6937 10.4163 14.8891 10.6116C15.0844 10.807 15.3494 10.9167 15.6257 10.9167C15.9019 10.9167 16.1669 10.807 16.3622 10.6116C16.5576 10.4163 16.6673 10.1513 16.6673 9.87504C16.6673 9.59877 16.5576 9.33382 16.3622 9.13847C16.1669 8.94312 15.9019 8.83337 15.6257 8.83337C15.3494 8.83337 15.0844 8.94312 14.8891 9.13847C14.6937 9.33382 14.584 9.59877 14.584 9.87504Z" stroke="#FFFEFE" stroke-width="1.75" stroke-linecap="round" stroke-linejoin="round"></path>
    </g>
    <defs>
      <clipPath id="clip0_521_4476">
        <rect width="25" height="25" fill="white" transform="translate(0 0.5)"></rect>
      </clipPath>
    </defs>
  </symbol>
   <symbol fill="none" xmlns="http://www.w3.org/2000/svg" viewBox="0 0 40 40" id="send">
    <g clip-path="url(#clip0_766_3517)">
      <path d="M17 23L34 5" stroke="#001966" stroke-linecap="round" stroke-linejoin="round"></path>
      <path d="M34 5L23.7112 34.4746C23.6417 34.6314 23.5302 34.7642 23.3899 34.8573C23.2496 34.9505 23.0864 35 22.9197 35C22.753 35 22.5898 34.9505 22.4495 34.8573C22.3092 34.7642 22.1977 34.6314 22.1283 34.4746L16.5882 23.0122L5.5079 17.2811C5.35636 17.2092 5.22793 17.0939 5.1379 16.9488C5.04786 16.8036 5 16.6348 5 16.4623C5 16.2899 5.04786 16.1211 5.1379 15.9759C5.22793 15.8308 5.35636 15.7154 5.5079 15.6436L34 5Z" stroke="#001966" stroke-linecap="round" stroke-linejoin="round"></path>
    </g>
    <defs>
      <clipPath id="clip0_766_3517">
        <rect width="40" height="40" rx="5" fill="white"></rect>
      </clipPath>
    </defs>
  </symbol>
  <symbol fill="none" xmlns="http://www.w3.org/2000/svg" viewBox="0 0 40 40" id="share">
    <g id="Share">
      <g clip-path="url(#clip0_27_1216)">
        <path id="Vector" d="M5 20C5 21.3261 5.52678 22.5979 6.46447 23.5355C7.40215 24.4732 8.67392 25 10 25C11.3261 25 12.5979 24.4732 13.5355 23.5355C14.4732 22.5979 15 21.3261 15 20C15 18.6739 14.4732 17.4021 13.5355 16.4645C12.5979 15.5268 11.3261 15 10 15C8.67392 15 7.40215 15.5268 6.46447 16.4645C5.52678 17.4021 5 18.6739 5 20Z" stroke="#001966" stroke-linecap="round" stroke-linejoin="round"></path>
        <path id="Vector_2" d="M25 10C25 11.3261 25.5268 12.5979 26.4645 13.5355C27.4021 14.4732 28.6739 15 30 15C31.3261 15 32.5979 14.4732 33.5355 13.5355C34.4732 12.5979 35 11.3261 35 10C35 8.67392 34.4732 7.40215 33.5355 6.46447C32.5979 5.52678 31.3261 5 30 5C28.6739 5 27.4021 5.52678 26.4645 6.46447C25.5268 7.40215 25 8.67392 25 10Z" stroke="#001966" stroke-linecap="round" stroke-linejoin="round"></path>
        <path id="Vector_3" d="M25 30C25 31.3261 25.5268 32.5979 26.4645 33.5355C27.4021 34.4732 28.6739 35 30 35C31.3261 35 32.5979 34.4732 33.5355 33.5355C34.4732 32.5979 35 31.3261 35 30C35 28.6739 34.4732 27.4021 33.5355 26.4645C32.5979 25.5268 31.3261 25 30 25C28.6739 25 27.4021 25.5268 26.4645 26.4645C25.5268 27.4021 25 28.6739 25 30Z" stroke="#001966" stroke-linecap="round" stroke-linejoin="round"></path>
        <path id="Vector_4" d="M14.5 17.8333L25.5 12.1666" stroke="#001966" stroke-linecap="round" stroke-linejoin="round"></path>
        <path id="Vector_5" d="M14.5 22.1666L25.5 27.8333" stroke="#001966" stroke-linecap="round" stroke-linejoin="round"></path>
      </g>
      <rect x="0.5" y="0.5" width="39" height="39" rx="4.5" stroke="#A3AFD1"></rect>
    </g>
    <defs>
      <clipPath id="clip0_27_1216">
        <rect width="40" height="40" rx="5" fill="white"></rect>
      </clipPath>
    </defs>
  </symbol>
  <symbol fill="none" xmlns="http://www.w3.org/2000/svg" viewBox="0 0 40 40" id="smile">
    <g id="Smile">
      <g clip-path="url(#clip0_27_1272)">
        <path id="Vector" d="M20 35C18.0302 35 16.0796 34.612 14.2597 33.8582C12.4399 33.1044 10.7863 31.9995 9.3934 30.6066C8.00052 29.2137 6.89563 27.5601 6.14181 25.7403C5.38799 23.9204 5 21.9698 5 20C5 18.0302 5.38799 16.0796 6.14181 14.2597C6.89563 12.4399 8.00052 10.7863 9.3934 9.3934C10.7863 8.00052 12.4399 6.89563 14.2597 6.14181C16.0796 5.38799 18.0302 5 20 5C23.9782 5 27.7936 6.58035 30.6066 9.3934C33.4196 12.2064 35 16.0218 35 20C35 23.9782 33.4196 27.7936 30.6066 30.6066C27.7936 33.4196 23.9782 35 20 35Z" stroke="#001966" stroke-linecap="round" stroke-linejoin="round"></path>
        <path id="Vector_2" d="M16.666 16.6666C15.8327 15 12.4993 15 11.666 16.6666" stroke="#001966" stroke-linecap="round" stroke-linejoin="round"></path>
        <path id="Vector_3" d="M28.334 16.6666C27.5007 15 24.1673 15 23.334 16.6666" stroke="#001966" stroke-linecap="round" stroke-linejoin="round"></path>
        <path id="Vector_4" d="M24.1673 25C23.6242 25.5543 22.9759 25.9947 22.2604 26.2954C21.545 26.596 20.7767 26.7509 20.0007 26.7509C19.2246 26.7509 18.4563 26.596 17.7409 26.2954C17.0254 25.9947 16.3771 25.5543 15.834 25" stroke="#001966" stroke-linecap="round" stroke-linejoin="round"></path>
      </g>
      <rect x="0.5" y="0.5" width="39" height="39" rx="4.5" stroke="#A3AFD1"></rect>
    </g>
    <defs>
      <clipPath id="clip0_27_1272">
        <rect width="40" height="40" rx="5" fill="white"></rect>
      </clipPath>
    </defs>
  </symbol>
  <symbol fill="none" xmlns="http://www.w3.org/2000/svg" viewBox="0 0 40 40" id="ticks">
    <g id="Frame" clip-path="url(#clip0_27_865)">
      <path id="Vector" d="M11.666 20L19.9993 28.3333L36.666 11.6666" stroke="#001966" stroke-linecap="round" stroke-linejoin="round"></path>
      <path id="Vector_2" d="M3 20.3333L11.3333 28.6667M19.6667 20.3333L28 12" stroke="#001966" stroke-linecap="round" stroke-linejoin="round"></path>
    </g>
    <defs>
      <clipPath id="clip0_27_865">
        <rect width="40" height="40" fill="white"></rect>
      </clipPath>
    </defs>
  </symbol>
</svg>
